<svg id="Layer_1" data-name="Layer 1" xmlns="http://www.w3.org/2000/svg" viewBox="0 0 360 209.83"><defs><style>.cls-1{fill:#231f20;}</style></defs><g id="Shape_88" data-name="Shape 88"><path class="cls-1" d="M44.68,148.85q152.13,0,304,0c1.53,0,1.93.29,1.86,1.89-.08,2.06.15,4.13-.07,6.17a43.21,43.21,0,0,0-.19,5.21,46.72,46.72,0,0,1,.18,5.41,38.88,38.88,0,0,0-.18,4.57c0,1.85.22,3.7.23,5.55,0,1.39-.16,2.78-.24,4.17a3.21,3.21,0,0,0,.05.88,1.36,1.36,0,0,1-1.18,1.88,6.93,6.93,0,0,1-1,0H17.26c-.66,0-1.74.25-1.89,0a4.78,4.78,0,0,1-.24-2.2c0-10.71,0-21.42,0-32.12,0-1.16.35-1.41,1.45-1.41,9.33,0,18.67,0,28.13,0m110.26,23.77a8.77,8.77,0,0,0,1.64.36,14.35,14.35,0,0,0,2-.14c-.31-.56-.62-1.12-.94-1.67-.57-1-1.08-2-.19-3.09a4.44,4.44,0,0,0,.32-5.05,3.57,3.57,0,0,0-2.06-1.52,39.57,39.57,0,0,0-6.44-.26,2,2,0,0,0-1.42,1.29c-.22,3-.25,5.92-.31,8.88,0,1.18.66,1.52,2.39,1.61,1.28.07,1.3-.64,1.19-1.5s.18-1.47,1.09-1.6a1.71,1.71,0,0,1,2,1.1c.2.47.53.89.8,1.59m8.87-11.44c-1-.09-1.49.37-1.42,1.41,0,.64,0,1.28,0,1.92-.06,2.47-.18,4.94-.14,7.4a2,2,0,0,0,1.05,1.29,3.9,3.9,0,0,0,1.68.06c1.89-.08,3.78-.2,5.67-.24.75,0,1.33,0,1.28-1.05-.06-.89-.4-1.3-1.3-1.28a27.13,27.13,0,0,1-3.72-.05c-.43,0-.85-.66-1.12-1.11-.06-.1.48-.81.8-.85,1-.12,2,0,3-.07.77-.08,1.62-.32,1.55-1.38a1.61,1.61,0,0,0-1.54-1.66c-1-.08-2,.06-3,0-.4-.05-.74-.51-1.11-.78.39-.33.77-.9,1.19-.94,1.27-.13,2.56,0,3.85-.06.77,0,1.43-.23,1.4-1.29s-.52-1.29-1.44-1.28c-2.13,0-4.28,0-6.67,0m45.87,10.93c-.09.77.35.91,1,.9q3.6,0,7.19,0c.76,0,1.57,0,1.55-1s-.66-1.35-1.61-1.33a18,18,0,0,1-3.45-.06,1.91,1.91,0,0,1-1.26-1.33c0-.85.81-.82,1.5-.77a7.08,7.08,0,0,0,2.38.05,2.35,2.35,0,0,0,1.38-1.38,1,1,0,0,0-1.09-1.4,23.06,23.06,0,0,1-3.22-.28c-.46-.08-1.23-.52-1.21-.73a1,1,0,0,1,1.21-1.06,16.43,16.43,0,0,0,3.71,0c.61-.09,1.61-.74,1.59-1.1a1.4,1.4,0,0,0-1.59-1.45c-2.22.12-4.45.06-6.68,0-1,0-1.42.4-1.41,1.43,0,3.08,0,6.17,0,9.51m-12.85-10.8a2,2,0,0,0-.79,1.86c.05,2.82.05,5.65,0,8.47,0,1.66,1.13,1.28,2.1,1.38s1.43-.3,1.25-1.3c-.26-1.49.55-1.87,1.91-1.8a4.67,4.67,0,0,0,3.29-.75c1.37-1,2.42-3.34,2-4.78a4.4,4.4,0,0,0-4.38-3.21c-1.75,0-3.51,0-5.39.13M174.73,167a9.72,9.72,0,0,0,.5,3c1.85,3.58,6.79,4,9.75,1.86a1.53,1.53,0,0,0,.49-1.28,1.41,1.41,0,0,0-1-.84,3.78,3.78,0,0,0-1.68.22c-2.61.83-3.91.18-4.63-2.37a3.14,3.14,0,0,1,1.44-3.42,3,3,0,0,1,3.51.39c.88.62,2.9-.32,2.58-1.21a3.69,3.69,0,0,0-2.14-1.81,16.59,16.59,0,0,0-3.34-.34c-2.63-.32-5.67,2.47-5.48,5.8m17.48,4.62c0-3,0-6,0-9,0-1.16-.56-1.44-1.58-1.39s-1.82.06-1.79,1.44c.05,3,0,6,0,9,0,.56-.3,1.46.77,1.34S192,173.7,192.21,171.59Z"/><path class="cls-1" d="M237.18,102.07a4.17,4.17,0,0,1,1.67-.74,31,31,0,0,1,3.2,0,1.38,1.38,0,0,1,1.39,1.85,4.71,4.71,0,0,0-.08,1.13q0,15.15,0,30.3c0,1.53-.14,1.67-1.66,1.67a18,18,0,0,1-2.94,0,2.28,2.28,0,0,1-1.52-1c-.8-1.72-1.46-3.51-2.09-5.3-1.08-3.07-2.09-6.15-3.12-9.24-.12-.34-.11-.72-.25-1a4.94,4.94,0,0,0-.53-.84c-.16.3-.46.6-.46.9,0,1.72.23,3.44.22,5.16,0,3.38-.17,6.77-.23,10.16,0,.92-.44,1.28-1.32,1.26-1.2,0-2.4-.07-3.59,0s-1.52-.56-1.53-1.57V103.5c0-1.79.41-2.2,2.19-2.2a19.87,19.87,0,0,0,2.44,0,1.76,1.76,0,0,1,2,1.37c.71,1.9,1.31,3.83,1.93,5.76.77,2.38,1.51,4.76,2.28,7.14.41,1.24.85,2.48,1.29,3.71a4,4,0,0,0,.29.54c.16-.17.4-.32.45-.53a3.29,3.29,0,0,0,0-.89Z"/><path class="cls-1" d="M84.52,126.74c0,2.92,0,5.7,0,8.48,0,.77-.22,1.07-1,1.05-1.24-.05-2.48,0-3.72,0-1,0-1.47-.37-1.47-1.5,0-9.5,0-19,0-28.52,0-1.17.07-2.35,0-3.51s.48-1.36,1.29-1.4a18.7,18.7,0,0,1,3.59,0,2.21,2.21,0,0,1,1.52,1.12c.8,2.16,1.36,4.4,2.12,6.58.5,1.41,1.28,2.73,1.76,4.15.54,1.63.82,3.34,1.34,5,.16.52.71.91,1.1,1.34,0,0,.23,0,.34,0a1.16,1.16,0,0,1,0-.18,34.3,34.3,0,0,1-.39-3.48c0-4.28,0-8.57,0-12.85,0-1.21.69-1.6,1.69-1.67s2,0,2.95,0c1.16-.08,1.57.39,1.56,1.54,0,6.3,0,12.6,0,18.89,0,4.41,0,8.82,0,13.23,0,1-.21,1.42-1.27,1.32a22,22,0,0,0-2.69,0c-1.25,0-2.1-.25-2.35-1.74a21.44,21.44,0,0,0-1.23-3.84c-.7-1.94-1.44-3.86-2.17-5.78-.54-1.41-1.12-2.8-1.61-4.22-.19-.57-.13-1.23-.29-1.81a4.61,4.61,0,0,0-.65-1.1,4.12,4.12,0,0,0-.34,1.14C84.51,121.48,84.52,124.05,84.52,126.74Z"/><path class="cls-1" d="M198.38,119.29c0,3.9,0,7.66,0,11.43a5.44,5.44,0,0,1-2.73,4.63,6,6,0,0,1-3.75.91c-3,0-5.91,0-8.86,0a2.14,2.14,0,0,1-2.38-2.52c0-1,.22-2.1.24-3.15,0-2.46,0-4.91,0-7.36V112.47c0-3.24,0-6.48,0-9.71,0-1.09.52-1.44,1.39-1.45,3.72,0,7.45-.14,11.17,0a5.48,5.48,0,0,1,4.92,5.24c.1,4.19,0,8.39,0,12.71m-6.82,10.54a3.16,3.16,0,0,0,1.17-2.73c0-5.51,0-11,0-16.54,0-2.19-.44-2.78-2.56-3.47s-3.35.28-3.35,2.37v8.59c0,3.55,0,7.1,0,10.64,0,.47.37,1.32.6,1.33C188.73,130.07,190,129.91,191.56,129.83Z"/><path class="cls-1" d="M62.67,110.3a26,26,0,0,1,0,3.07,1.54,1.54,0,0,0,1.2,1.78c1.24.44,2.55.66,3.8,1.07,1.91.64,3.81,1.34,5.69,2.07A1.14,1.14,0,0,1,74,119a22.14,22.14,0,0,1,.26,3.35c0,2.08-.16,4.15-.23,6.23a20.22,20.22,0,0,0,0,2.06c.11,2.15-.93,3.46-2.69,4.68a5.56,5.56,0,0,1-3.51.89H61.63A5.21,5.21,0,0,1,57,131.81c-.11-1.51-.38-3-.48-4.54a7.35,7.35,0,0,1,.26-2.07c0-.2.36-.42.59-.5a5.38,5.38,0,0,1,1.43-.26c3.82,0,3.79,0,3.9,3.7,0,.57.49,1.54.87,1.6a7.77,7.77,0,0,0,3.59,0c1.07-.34.75-1.74.85-2.65a18,18,0,0,0-.22-3.65c0-.26-.16-.67-.34-.73-1.16-.41-2.35-.74-3.53-1.1-1.75-.52-3.51-1-5.26-1.56s-2.08-2.05-2.14-3.55a49.46,49.46,0,0,1,0-7.7c.23-2.06.08-4.35,1.88-6A5.24,5.24,0,0,1,62,101.32c2.35-.07,4.71-.11,7.06,0a5.1,5.1,0,0,1,4,2.28,5.63,5.63,0,0,1,1,3.84,26.42,26.42,0,0,0,0,4c.14,1.29-.59,1.55-1.55,1.68-.42.06-.86,0-1.28,0-3,.16-3.11-.54-3.18-2.81,0-1,.1-2.23-1.22-2.88C64.63,106.38,62.67,107.62,62.67,110.3Z"/><path class="cls-1" d="M101.23,135.48c.27-1.77.54-3.41.81-5,.16-.92.3-1.85.47-2.76.34-1.83.31-3.85,1.12-5.44,1.16-2.28.91-4.79,1.77-7.11.79-2.09.82-4.45,1.24-6.68.16-.86.56-1.67.74-2.52.23-1.07.38-2.16.52-3.25s.85-1.34,1.73-1.36a49.23,49.23,0,0,1,5,0,2,2,0,0,1,1.44,1.06,18.4,18.4,0,0,1,.81,3.39c.22,1.16.28,2.36.54,3.51.46,2,1,4,1.52,6a26.32,26.32,0,0,0,.56,3.37c.79,2.12.43,4.51,1.63,6.52a4.81,4.81,0,0,1,.39,1.63c.35,2.17.67,4.35,1,6.51a6.21,6.21,0,0,0,.51,1.58c.43.9-.06,1.24-.79,1.27-1.46.07-2.91.05-4.37,0a1,1,0,0,1-.73-.6c-.4-1.65-.67-3.32-1.08-5-.19-.77-.54-1.44-1.6-1.38a33.15,33.15,0,0,1-4.11,0c-1.91-.11-2.58.42-2.78,2.82a12,12,0,0,1-.79,3.26,1.77,1.77,0,0,1-1.27.83,17.74,17.74,0,0,1-3.34,0c-.34,0-.66-.39-1-.74m12.59-15.29c-.12-1-.2-2-.37-2.92s-.52-2.12-.63-3.19,0-2,0-3.07a.52.52,0,0,0-.26-.43c-.14,0-.45.07-.48.18a28.32,28.32,0,0,0-1,3.68c-.44,2.61-.78,5.24-1.09,7.87-.06.48,0,1.26.34,1.43a3.71,3.71,0,0,0,1.75.17c2,0,2.59-.75,2-2.77A5.16,5.16,0,0,1,113.82,120.19Z"/><path class="cls-1" d="M270.08,122.12c.34-1.74.69-3.36,1-5s.7-3.22,1-4.84c.28-1.43.48-2.88.8-4.3.14-.64.58-1.22.73-1.87.24-1,.33-2.08.54-3.12a2,2,0,0,1,2.29-1.73c1.41,0,2.82,0,4.23,0a1.47,1.47,0,0,1,1.71,1.66,8.44,8.44,0,0,0,.25,1.56c.33,1.7.62,3.42,1,5.09.49,2,1.12,3.9,1.67,5.85a13.49,13.49,0,0,1,.36,1.65c.36,2.17.66,4.35,1.05,6.51.21,1.13.62,2.23.85,3.36.43,2.14.79,4.3,1.2,6.44a5.64,5.64,0,0,0,.52,1.58c.51.89-.08,1.19-.71,1.23-1.49.08-3,.05-4.49,0a1,1,0,0,1-.7-.63c-.39-1.64-.66-3.32-1.07-5a1.49,1.49,0,0,0-1.64-1.34c-1.49.09-3,0-4.49,0a2,2,0,0,0-2.09,2.06,11.63,11.63,0,0,1-.3,3c-.5,1.58-1.17,1.91-3,1.91H270c-2.55,0-3.09-.61-2.47-3.12.67-2.75,1.48-5.47,2.17-8.21a22.31,22.31,0,0,0,.38-2.8m9-7.07c0-1.32,0-2.65,0-4a.79.79,0,0,0-.32-.51c-.05,0-.38.13-.42.25a26.72,26.72,0,0,0-1,3.42c-.5,2.68-.86,5.37-1.32,8.05a1.23,1.23,0,0,0,1.33,1.62c.64,0,1.29,0,1.92,0,1,.06,1.48-.42,1.39-1.43A26.27,26.27,0,0,0,279.08,115.05Z"/><path class="cls-1" d="M220,101.75c.08,1.68.11,3.29.08,4.9,0,.11-.48.28-.75.29-2.87.11-5.75.2-8.62.26-1.74,0-1.83.09-1.83,1.77v5.27c0,1.7.78,2,2.76,1.71a22.32,22.32,0,0,1,5.16.14c.31,0,.77.72.78,1.13,0,1.11-.14,2.23-.21,3.36-.06.92-.66,1-1.41,1-1.92,0-3.85,0-5.78,0-.89,0-1.31.35-1.3,1.26,0,2.19,0,4.37,0,6.55a1.23,1.23,0,0,0,.8.89c2.28.08,4.57,0,6.85,0a9.68,9.68,0,0,1,2.35,0,2,2,0,0,1,1.54,2.07c0,3.8.07,3.8-3.65,3.8h-12.2c-2.08,0-2.6-.68-2.16-2.77a5,5,0,0,0,0-1c0-9.8,0-19.61,0-29.41,0-1.32.56-1.73,1.62-1.74q7.58,0,15.15,0C219.47,101.32,219.72,101.56,220,101.75Z"/><path class="cls-1" d="M157.25,62.24V48.36c0-1.36.59-1.74,2-1.59a2.37,2.37,0,0,0,1.9-.48,2.88,2.88,0,0,0,.16-2.17c-.09-.32-.94-.53-1.47-.62a11.27,11.27,0,0,0-1.84,0,2.68,2.68,0,0,1-2.77-2.83c0-7.15,0-14.3,0-21.45a4.5,4.5,0,0,1,.51-2c1.14-2.19,2.34-4.35,3.57-6.49a6,6,0,0,1,1.27-1.52,1.83,1.83,0,0,1,2.33.47,8.92,8.92,0,0,1,1.6,5.14c-.1,10.32-.06,20.64,0,31A7.34,7.34,0,0,0,165,47.5a8.9,8.9,0,0,1,.5,2.1c0,7.07,0,14.13,0,21.2,0,1.54,0,3.15-.87,4.42a4.88,4.88,0,0,1-2.5,1.85,3.77,3.77,0,0,1-4.28-1.59,3.71,3.71,0,0,1-.55-1.94c-.05-3.72,0-7.45,0-11.3m4.12-34.83c0-3,0-6.07,0-9.11,0-.33.07-.66.07-1,0-1.1,0-2.19-.1-3.28,0-.22-.31-.42-.48-.63a3.24,3.24,0,0,0-.51.61,26.28,26.28,0,0,1-1.27,2.8A5.33,5.33,0,0,0,158,20.23c.1,1.2,0,2.42,0,3.63q0,6.67,0,13.35c0,.52-.26,1-.22,1.55s.16,1.52.49,1.65a4.73,4.73,0,0,0,2.45.15c.29-.06.6-.87.61-1.35,0-3.85,0-7.69,0-11.8m-1,30.84c-.09,2.42-.24,4.83-.24,7.25s.15,5,.24,7.5c0,.54-.25,1.38.7,1.28.73-.08,1.48-.25,1.39-1.43-.14-1.93,0-3.88,0-5.82V55.19c0-1.49.07-3,0-4.48,0-.38-.55-.86-1-1-.24-.09-1,.31-1,.52C160.27,52.84,160.25,55.48,160.34,58.25Z"/><path class="cls-1" d="M138.49,126.49c0-1.52.48-2,1.81-2.06.95,0,1.89,0,2.83,0a1.37,1.37,0,0,1,1.52,1.56,58.23,58.23,0,0,1-.3,5.92,4.07,4.07,0,0,1-1.29,2.38c-1.18,1-2.38,2.07-4.18,2-2.18-.11-4.37,0-6.56,0a5.88,5.88,0,0,1-4.84-3.41,13.62,13.62,0,0,1-.83-5.06c0-6.64-.07-13.28.06-19.92a6.75,6.75,0,0,1,3.57-6.15,4.3,4.3,0,0,1,1.89-.39c2.39,0,4.8-.08,7.19,0a5.07,5.07,0,0,1,4.08,2.48c1.75,2.56,1.12,5.46,1.16,8.24,0,.36-.81.94-1.32,1a14,14,0,0,1-2.82.05,1.92,1.92,0,0,1-2-2.05c0-.51,0-1,0-1.54,0-1.47-.68-2.21-2.23-2.58a3.72,3.72,0,0,0-3,1.32,1.83,1.83,0,0,0-.12.85c0,6.42,0,12.84,0,19.27,0,1.16.64,1.49,1.55,1.69a1,1,0,0,0,.25,0C138.37,130,138.34,130.08,138.49,126.49Z"/><path class="cls-1" d="M154.94,109c0,5.52,0,10.92,0,16.31,0,1.27.15,2.53.25,3.79.07.8.6,1,1.33,1h.38c3.41,0,3.47,0,3.41-3.4,0-1.79-.16-2.28,2.25-2.26,3.94,0,3.84,0,4,3.88a16.7,16.7,0,0,1-.9,5.05c-.28,1-3,2.89-4.16,2.89-2.44,0-4.88,0-7.32,0-2,0-3.23-1.2-4.37-2.6a5.75,5.75,0,0,1-1.05-3.94c.05-7.7,0-15.41,0-23.12a5.7,5.7,0,0,1,5.28-5.31c2.36,0,4.71,0,7.07,0,2.14,0,3.79,1.64,4.66,3.63,1,2.22.51,4.44.72,6.65a1.29,1.29,0,0,1-1.18,1.48,18.34,18.34,0,0,1-4.12-.25c-.35,0-.76-.7-.84-1.13a11.21,11.21,0,0,1,0-2.17,2.59,2.59,0,0,0-2.9-2.54C156.35,107.21,155.23,107.54,154.94,109Z"/><path class="cls-1" d="M183.15,46.11c1.24.8,2.45,1.43,2.4,3.17-.09,2.79,0,5.59,0,8.39v11.6c0,1.17,0,2.34,0,3.51a4.17,4.17,0,0,1-4.39,4.36,3.94,3.94,0,0,1-3.56-2.84,19.74,19.74,0,0,1-.26-3c0-6.72,0-13.45,0-20.17,0-.82,0-1.65,0-2.48a1.83,1.83,0,0,1,1.2-1.9c1.54-.45,1.42-1.75,1.61-2.9,0-.33-.06-.7,0-1,.41-1.8-.7-2.64-2-3.36-1.92-1-3-2.7-4.2-4.49-1.3-2-1.31-4.26-1.36-6.34a12.74,12.74,0,0,1,2.58-8.75,11,11,0,0,1,4.5-3c2.12-.84,3.75,0,5.36.79a8.53,8.53,0,0,1,3.79,4.1,13.4,13.4,0,0,1,1.53,6.13c0,3-.41,6.08-2.36,8.76A11.37,11.37,0,0,1,184,39.88a2.18,2.18,0,0,0-1.31,2.34c.11.89,0,1.8,0,2.7a3.59,3.59,0,0,0,.43,1.19m2.5-11.37a13.65,13.65,0,0,0,1.14-1.84,16,16,0,0,0,.54-2.09,7.11,7.11,0,0,0,.48-2,12.11,12.11,0,0,0-3.24-8,5.57,5.57,0,0,0-2.69-1.49c-2.22-.47-3.41,1.12-4.63,2.65a8.87,8.87,0,0,0-1.5,3.49,12.93,12.93,0,0,0-.72,2.76,12.72,12.72,0,0,0,2.13,6.66c2.15,3.64,6.45,3.42,8.49-.19m-3.21,27.62V59.67c0-2.74-.08-5.48.05-8.21,0-.83.12-1.41-.81-1.55s-1.79,0-1.57,1.36a8.78,8.78,0,0,1,0,1.54c0,6.71,0,13.42,0,20.13,0,.92.32,1.14,1.18,1.15s1.21-.26,1.17-1.16c-.07-1.26,0-2.51,0-3.77Z"/><path class="cls-1" d="M199.47,35.44c1.14,2,2.12,2.12,4.45,2.11.8,0,1.59-.21,2.38-.23a2.65,2.65,0,0,0,2.37-1.7,10.7,10.7,0,0,0,1.3-5.25c-.11-3.51,0-7,0-10.53a8.55,8.55,0,0,1,.05-2.09c.1-.4.65-.67,1-1,.25.3.66.57.72.9a17,17,0,0,1,.27,3c0,2-.2,4-.22,6.06,0,1.2.23,2.41.22,3.62a37.59,37.59,0,0,1-.3,5.41,5.42,5.42,0,0,1-1.32,2.5,6.07,6.07,0,0,1-4,2.17c-.29,0-.76.43-.77.67a45.21,45.21,0,0,0,0,4.8,1.34,1.34,0,0,0,.95.88c1.44,0,1.27,1.12,1.28,1.93,0,1.43-.19,2.87-.21,4.3,0,2.54,0,5.08,0,7.62,0,2.35.23,4.7.23,7.05s-.14,4.76-.25,7.13c-.06,1.41-1.27,1.91-2.25,2.29a4.24,4.24,0,0,1-4.74-1.73,4.43,4.43,0,0,1-.43-2.12c0-1.42.21-2.84.22-4.26,0-6,0-11.9,0-17.85a22.32,22.32,0,0,0,0-3.17c-.16-1.06.63-1.29,1.2-1.35.88-.1.88-.54.9-1.18.05-1.38.22-2.76.19-4.14,0-.3-.58-.76-1-.87a7.45,7.45,0,0,1-4.46-3.21c-1.33-2-1.34-4.1-1.42-6.23-.08-2.31.19-4.63.2-6.95,0-1.57-.18-3.13-.22-4.69a5.5,5.5,0,0,1,.28-1.94c.11-.3.73-.69,1-.6a2.17,2.17,0,0,1,1.26,1,5,5,0,0,1,.06,1.82c0,4.07-.08,8.14,0,12.2a14,14,0,0,0,1.05,3.62m3.79,22c0,5.09,0,10.18,0,15.27,0,.52.46,1,.71,1.56.44-.42,1.14-.77,1.26-1.27a11.81,11.81,0,0,0,.05-2.73q0-4.09,0-8.21c0-.46.14-.92.14-1.39,0-3.18-.24-6.38-.06-9.55.06-1-.22-1.14-.9-1.25s-1.29,0-1.26,1C203.31,53,203.26,55.13,203.26,57.48Z"/><path class="cls-1" d="M300.15,130.6a6.33,6.33,0,0,1,1.33-.49c2.18-.05,4.37,0,6.55,0a2.22,2.22,0,0,1,2.4,2.38c0,.66,0,1.32,0,2,0,1.47-.81,1.86-2.18,1.84-4.41-.07-8.83,0-13.24,0-1.56,0-2.05-.49-2.05-2.06q0-15.54,0-31.09c0-1.24.53-1.77,1.8-1.8h2.83c1.33,0,1.79.47,1.79,1.82,0,8.61,0,17.21,0,25.82A3.59,3.59,0,0,0,300.15,130.6Z"/><path class="cls-1" d="M247.46,107.21c-.34-.29-.72-.57-.74-.87-.07-1.28,0-2.56,0-3.85,0-.85.42-1.2,1.24-1.19,5,0,10,0,15,0,.94,0,1.59.32,1.48,1.47-.07.76,0,1.54,0,2.31,0,1.28-.49,1.8-1.74,1.86-.65,0-1.31,0-2,0-1.76,0-2.45.33-2.45,2.31,0,8.48,0,17,0,25.43,0,1.34-.39,1.73-1.65,1.58-.8-.09-1.63,0-2.44,0a2.41,2.41,0,0,1-2.3-3.05,6.92,6.92,0,0,0,0-1.64c0-2.35,0-4.71,0-7.06,0-1.18-.07-2.36,0-3.54,0-2.38.13-4.76.2-7.14,0-.13.05-.25.05-.37-.08-1.78-.13-3.56-.29-5.33a1.27,1.27,0,0,0-.83-.87C249.85,107.15,248.72,107.21,247.46,107.21Z"/><path class="cls-1" d="M170.81,113.19c-.11-3.56-.2-7-.15-10.54a1.35,1.35,0,0,1,1.57-1.37,28.65,28.65,0,0,0,3.21,0c1,0,1.34.38,1.36,1.35,0,1.89.22,3.78.23,5.67,0,1.46-.23,2.92-.22,4.38,0,2.08.22,4.15.22,6.23,0,3-.18,5.94-.24,8.92,0,2,0,4,0,5.94,0,2.13-.35,2.47-2.41,2.47h-1.54c-2.11,0-2.24-.09-2.2-2.27.05-3.35.22-6.69.23-10,0-3.09-.17-6.18-.23-9.27C170.62,114.21,170.79,113.73,170.81,113.19Z"/><path class="cls-1" d="M200.43,23.17c0-1.58,0-3,0-4.48,0-1,.19-1.76,1.5-1.71s1.35.66,1.34,1.63q0,3.77,0,7.55c0,.93-.31,1.41-1.31,1.39a1.37,1.37,0,0,1-1.52-1.44C200.4,25.18,200.43,24.24,200.43,23.17Z"/><path class="cls-1" d="M207.05,27.47c-2,.07-2.58-.7-2.07-2.56a3.26,3.26,0,0,0,.07-1c-.07-1.77-.17-3.55-.25-5.32,0-.75.87-1.89,1.51-1.84,1,.06,1.29.83,1.3,1.63,0,2.57,0,5.13,0,7.69A3.66,3.66,0,0,1,207.05,27.47Z"/><path class="cls-1" d="M151.09,165.55c0-1-.05-1.88,1.12-1.77.95.09,2.4-.72,2.67.94.11.64.71,1.81-.59,2.1C152,167.32,151.41,167.05,151.09,165.55Z"/><path class="cls-1" d="M200.69,163.75c1,0,1.88-.21,2.37.73.21.39.46,1,.3,1.28a3.49,3.49,0,0,1-1.29,1.06,4.3,4.3,0,0,1-1,.28c-1.13.29-1.49-.48-1.6-1.31S199.2,163.88,200.69,163.75Z"/></g></svg>